<svg width="14" height="14" viewBox="0 0 14 14" fill="none" xmlns="http://www.w3.org/2000/svg">
<rect width="14" height="14" rx="7" fill="#3348FB"/>
<path d="M10.5013 7.58219H7.58464V10.4989C7.58464 10.6536 7.52318 10.8019 7.41378 10.9113C7.30439 11.0207 7.15601 11.0822 7.0013 11.0822C6.84659 11.0822 6.69822 11.0207 6.58882 10.9113C6.47943 10.8019 6.41797 10.6536 6.41797 10.4989V7.58219H3.5013C3.34659 7.58219 3.19822 7.52074 3.08882 7.41134C2.97943 7.30194 2.91797 7.15357 2.91797 6.99886C2.91797 6.84415 2.97943 6.69578 3.08882 6.58638C3.19822 6.47699 3.34659 6.41553 3.5013 6.41553H6.41797V3.49886C6.41797 3.34415 6.47943 3.19578 6.58882 3.08638C6.69822 2.97699 6.84659 2.91553 7.0013 2.91553C7.15601 2.91553 7.30439 2.97699 7.41378 3.08638C7.52318 3.19578 7.58464 3.34415 7.58464 3.49886V6.41553H10.5013C10.656 6.41553 10.8044 6.47699 10.9138 6.58638C11.0232 6.69578 11.0846 6.84415 11.0846 6.99886C11.0846 7.15357 11.0232 7.30194 10.9138 7.41134C10.8044 7.52074 10.656 7.58219 10.5013 7.58219Z" fill="white"/>
</svg>
