<svg xmlns="http://www.w3.org/2000/svg" width="14" height="14" viewBox="0 0 14 14" fill="none">
<path d="M2.99868 5.66658V7.66658C2.99867 7.77028 2.97447 7.87255 2.92801 7.96525L2.07868 9.66658H11.9213L11.0707 7.96525C11.0238 7.87266 10.9991 7.77039 10.9987 7.66658V5.66658C10.9987 4.60572 10.5772 3.5883 9.8271 2.83816C9.07696 2.08801 8.05954 1.66659 6.99868 1.66659C5.93781 1.66659 4.92039 2.08801 4.17025 2.83816C3.4201 3.5883 2.99868 4.60572 2.99868 5.66658ZM4.33201 10.9999H0.998676C0.88499 10.9999 0.773194 10.9708 0.673912 10.9155C0.57463 10.8601 0.491161 10.7802 0.431437 10.6835C0.371714 10.5867 0.337719 10.4763 0.332685 10.3628C0.327651 10.2492 0.351744 10.1362 0.402676 10.0346L1.66534 7.50925V5.66658C1.66534 4.2521 2.22725 2.89554 3.22744 1.89535C4.22763 0.895155 5.58419 0.333252 6.99868 0.333252C8.41316 0.333252 9.76972 0.895155 10.7699 1.89535C11.7701 2.89554 12.332 4.2521 12.332 5.66658V7.50925L13.5947 10.0346C13.6456 10.1362 13.6697 10.2492 13.6647 10.3628C13.6596 10.4763 13.6256 10.5867 13.5659 10.6835C13.5062 10.7802 13.4227 10.8601 13.3234 10.9155C13.2242 10.9708 13.1124 10.9999 12.9987 10.9999H9.66534C9.66534 11.7072 9.38439 12.3854 8.88429 12.8855C8.3842 13.3856 7.70592 13.6666 6.99868 13.6666C6.29143 13.6666 5.61315 13.3856 5.11306 12.8855C4.61296 12.3854 4.33201 11.7072 4.33201 10.9999ZM8.33201 10.9999H5.66534C5.66534 11.3535 5.80582 11.6927 6.05587 11.9427C6.30592 12.1928 6.64505 12.3333 6.99868 12.3333C7.3523 12.3333 7.69144 12.1928 7.94148 11.9427C8.19153 11.6927 8.33201 11.3535 8.33201 10.9999Z" fill="#3348FB"/>
</svg>