<svg width="8" height="5" viewBox="0 0 8 5" fill="none" xmlns="http://www.w3.org/2000/svg">
<path d="M3.78307 0.616732C3.69418 0.616732 3.60796 0.633399 3.52441 0.666732C3.44085 0.700065 3.37152 0.74451 3.31641 0.800065L0.249739 3.86673C0.127517 3.98895 0.0664062 4.14451 0.0664062 4.3334C0.0664062 4.52229 0.127517 4.67784 0.249739 4.80007C0.371962 4.92229 0.527517 4.9834 0.716406 4.9834C0.905295 4.9834 1.06085 4.92229 1.18307 4.80007L3.78307 2.20006L6.38307 4.80007C6.50529 4.92229 6.66085 4.9834 6.84974 4.9834C7.03863 4.9834 7.19418 4.92229 7.31641 4.80007C7.43863 4.67784 7.49974 4.52229 7.49974 4.3334C7.49974 4.14451 7.43863 3.98895 7.31641 3.86673L4.24974 0.800065C4.18307 0.733398 4.11085 0.686065 4.03307 0.658065C3.9553 0.630065 3.87196 0.616287 3.78307 0.616732Z" fill="#3348FB"/>
</svg>
