<svg width="13" height="11" viewBox="0 0 13 11" fill="none" xmlns="http://www.w3.org/2000/svg">
<path d="M10.7 0H2.3C1.82261 0 1.36477 0.18964 1.02721 0.5272C0.689642 0.864761 0.5 1.32259 0.5 1.79997V6.79989C0.5 7.27727 0.689642 7.73511 1.02721 8.07267C1.36477 8.41023 1.82261 8.59987 2.3 8.59987H9.254L11.474 10.8258C11.5301 10.8814 11.5966 10.9254 11.6697 10.9553C11.7428 10.9852 11.821 11.0003 11.9 10.9998C11.9787 11.0019 12.0568 10.9854 12.128 10.9518C12.2376 10.9068 12.3314 10.8304 12.3976 10.7322C12.4638 10.6339 12.4994 10.5183 12.5 10.3998V1.79997C12.5 1.32259 12.3104 0.864761 11.9728 0.5272C11.6352 0.18964 11.1774 0 10.7 0ZM11.3 8.95386L9.926 7.57388C9.86994 7.51827 9.80345 7.47428 9.73034 7.44442C9.65724 7.41456 9.57896 7.39943 9.5 7.39988H2.3C2.14087 7.39988 1.98826 7.33667 1.87574 7.22415C1.76321 7.11163 1.7 6.95902 1.7 6.79989V1.79997C1.7 1.64085 1.76321 1.48824 1.87574 1.37572C1.98826 1.2632 2.14087 1.19998 2.3 1.19998H10.7C10.8591 1.19998 11.0117 1.2632 11.1243 1.37572C11.2368 1.48824 11.3 1.64085 11.3 1.79997V8.95386Z" fill="#3348FB"/>
</svg>
