<svg width="15" height="14" viewBox="0 0 15 14" fill="none" xmlns="http://www.w3.org/2000/svg">
<path d="M7.50078 8.3998L2.60078 13.2998C2.41745 13.4831 2.18411 13.5748 1.90078 13.5748C1.61745 13.5748 1.38411 13.4831 1.20078 13.2998C1.01745 13.1165 0.925781 12.8831 0.925781 12.5998C0.925781 12.3165 1.01745 12.0831 1.20078 11.8998L6.10078 6.9998L1.20078 2.0998C1.01745 1.91647 0.925781 1.68314 0.925781 1.3998C0.925781 1.11647 1.01745 0.883138 1.20078 0.699804C1.38411 0.516471 1.61745 0.424805 1.90078 0.424805C2.18411 0.424805 2.41745 0.516471 2.60078 0.699804L7.50078 5.5998L12.4008 0.699804C12.5841 0.516471 12.8174 0.424805 13.1008 0.424805C13.3841 0.424805 13.6174 0.516471 13.8008 0.699804C13.9841 0.883138 14.0758 1.11647 14.0758 1.3998C14.0758 1.68314 13.9841 1.91647 13.8008 2.0998L8.90078 6.9998L13.8008 11.8998C13.9841 12.0831 14.0758 12.3165 14.0758 12.5998C14.0758 12.8831 13.9841 13.1165 13.8008 13.2998C13.6174 13.4831 13.3841 13.5748 13.1008 13.5748C12.8174 13.5748 12.5841 13.4831 12.4008 13.2998L7.50078 8.3998Z" fill="#3348FB"/>
</svg>
