<svg width="14" height="14" viewBox="0 0 14 14" fill="none" xmlns="http://www.w3.org/2000/svg">
<path d="M1.5638 13.9478C1.19714 13.9478 0.883136 13.8171 0.621803 13.5556C0.36047 13.2941 0.230025 12.9794 0.23047 12.6115V3.25729C0.23047 2.88981 0.361137 2.57511 0.62247 2.31319C0.883803 2.05127 1.19758 1.92054 1.5638 1.92098H7.5138L6.18047 3.25729H1.5638V12.6115H10.8971V7.96779L12.2305 6.63148V12.6115C12.2305 12.979 12.0998 13.2937 11.8385 13.5556C11.5771 13.8175 11.2634 13.9482 10.8971 13.9478H1.5638ZM9.0138 2.30517L9.9638 3.24059L5.5638 7.65042V8.60254H6.49714L10.9138 4.17601L11.8638 5.11143L7.0638 9.93886H4.23047V7.09919L9.0138 2.30517ZM11.8638 5.11143L9.0138 2.30517L10.6805 0.634781C10.9471 0.367518 11.2667 0.233887 11.6391 0.233887C12.0116 0.233887 12.3254 0.367518 12.5805 0.634781L13.5138 1.5869C13.7694 1.84303 13.8971 2.15484 13.8971 2.52232C13.8971 2.88981 13.7694 3.20161 13.5138 3.45774L11.8638 5.11143Z" fill="#3348FB"/>
</svg>
