<svg width="12" height="12" viewBox="0 0 12 12" fill="none" xmlns="http://www.w3.org/2000/svg">
<path d="M6.0013 1.33366C4.76363 1.33366 3.57664 1.82532 2.70147 2.70049C1.8263 3.57566 1.33464 4.76265 1.33464 6.00033C1.33464 7.238 1.8263 8.42499 2.70147 9.30016C3.57664 10.1753 4.76363 10.667 6.0013 10.667C7.23898 10.667 8.42596 10.1753 9.30113 9.30016C10.1763 8.42499 10.668 7.238 10.668 6.00033C10.668 4.76265 10.1763 3.57566 9.30113 2.70049C8.42596 1.82532 7.23898 1.33366 6.0013 1.33366ZM0.167969 6.00033C0.167969 2.77858 2.77955 0.166992 6.0013 0.166992C9.22305 0.166992 11.8346 2.77858 11.8346 6.00033C11.8346 9.22208 9.22305 11.8337 6.0013 11.8337C2.77955 11.8337 0.167969 9.22208 0.167969 6.00033Z" fill="#3348FB"/>
<path d="M6 4.83333C6.15471 4.83333 6.30308 4.89479 6.41248 5.00419C6.52188 5.11358 6.58333 5.26196 6.58333 5.41667V8.91667C6.58333 9.07138 6.52188 9.21975 6.41248 9.32915C6.30308 9.43854 6.15471 9.5 6 9.5C5.84529 9.5 5.69692 9.43854 5.58752 9.32915C5.47812 9.21975 5.41667 9.07138 5.41667 8.91667V5.41667C5.41667 5.26196 5.47812 5.11358 5.58752 5.00419C5.69692 4.89479 5.84529 4.83333 6 4.83333ZM6.875 3.375C6.875 3.60706 6.78281 3.82962 6.61872 3.99372C6.45462 4.15781 6.23206 4.25 6 4.25C5.76794 4.25 5.54538 4.15781 5.38128 3.99372C5.21719 3.82962 5.125 3.60706 5.125 3.375C5.125 3.14294 5.21719 2.92038 5.38128 2.75628C5.54538 2.59219 5.76794 2.5 6 2.5C6.23206 2.5 6.45462 2.59219 6.61872 2.75628C6.78281 2.92038 6.875 3.14294 6.875 3.375Z" fill="#3348FB"/>
</svg>
