<svg width="17" height="17" viewBox="0 0 17 17" fill="none" xmlns="http://www.w3.org/2000/svg">
<path d="M15.5 11.0938L11.8211 9.44456L11.807 9.4383C11.5679 9.33521 11.3067 9.29371 11.0474 9.31759C10.7881 9.34148 10.5389 9.42999 10.3227 9.57502C10.2923 9.59532 10.2631 9.61723 10.2352 9.64065L8.49219 11.125C7.47657 10.5742 6.42735 9.53362 5.87579 8.53049L7.36485 6.76018C7.38879 6.73161 7.41096 6.7016 7.43126 6.67034C7.57249 6.45483 7.65824 6.20774 7.68087 5.95108C7.70349 5.69441 7.6623 5.43613 7.56094 5.19924C7.55854 5.1947 7.55645 5.19001 7.55469 5.18518L5.90626 1.50002C5.77094 1.19184 5.54001 0.935404 5.24763 0.768671C4.95525 0.601938 4.61696 0.533765 4.28282 0.574242C3.14873 0.723221 2.10765 1.27992 1.35402 2.14038C0.600386 3.00083 0.185733 4.1062 0.187506 5.25002C0.187506 11.6258 5.37422 16.8125 11.75 16.8125C12.8938 16.8143 13.9992 16.3996 14.8597 15.646C15.7201 14.8924 16.2768 13.8513 16.4258 12.7172C16.4663 12.3831 16.3981 12.0448 16.2314 11.7524C16.0646 11.46 15.8082 11.2291 15.5 11.0938ZM11.75 14.9375C9.18167 14.9344 6.71942 13.9128 4.90333 12.0967C3.08725 10.2806 2.06561 7.81836 2.06251 5.25002C2.06072 4.60275 2.28046 3.97436 2.68522 3.46926C3.08999 2.96415 3.6554 2.61276 4.28751 2.47346L5.75782 5.75471L4.26094 7.53752C4.23675 7.56636 4.21431 7.59662 4.19376 7.62815C4.04622 7.85358 3.95947 8.11333 3.94195 8.38218C3.92443 8.65103 3.97672 8.91985 4.09376 9.16252C4.82969 10.6688 6.3461 12.175 7.86797 12.9125C8.11227 13.0283 8.38244 13.0788 8.65207 13.0589C8.9217 13.0391 9.18156 12.9496 9.40626 12.7992C9.43647 12.7789 9.46543 12.7567 9.49297 12.7328L11.2453 11.243L14.5266 12.7125C14.3873 13.3446 14.0359 13.91 13.5308 14.3148C13.0257 14.7196 12.3973 14.9393 11.75 14.9375Z" fill="#3348FB"/>
</svg>
