<svg xmlns="http://www.w3.org/2000/svg" width="12" height="12" viewBox="0 0 12 12" fill="none">
<path d="M6.66667 0.66669C6.66667 0.489879 6.59643 0.320309 6.4714 0.195285C6.34638 0.0702608 6.17681 2.28882e-05 6 2.28882e-05C5.82319 2.28882e-05 5.65362 0.0702608 5.5286 0.195285C5.40357 0.320309 5.33333 0.489879 5.33333 0.66669V5.33336H0.666667C0.489856 5.33336 0.320286 5.40359 0.195262 5.52862C0.0702379 5.65364 0 5.82321 0 6.00002C0 6.17683 0.0702379 6.3464 0.195262 6.47143C0.320286 6.59645 0.489856 6.66669 0.666667 6.66669H5.33333V11.3334C5.33333 11.5102 5.40357 11.6797 5.5286 11.8048C5.65362 11.9298 5.82319 12 6 12C6.17681 12 6.34638 11.9298 6.4714 11.8048C6.59643 11.6797 6.66667 11.5102 6.66667 11.3334V6.66669H11.3333C11.5101 6.66669 11.6797 6.59645 11.8047 6.47143C11.9298 6.3464 12 6.17683 12 6.00002C12 5.82321 11.9298 5.65364 11.8047 5.52862C11.6797 5.40359 11.5101 5.33336 11.3333 5.33336H6.66667V0.66669Z" fill="#3348FB"/>
</svg>