<svg width="16" height="16" viewBox="0 0 16 16" fill="none" xmlns="http://www.w3.org/2000/svg">
<path d="M4.33333 2.66536C4.33333 2.31174 4.47381 1.9726 4.72386 1.72256C4.97391 1.47251 5.31305 1.33203 5.66667 1.33203H9.66667C10.0203 1.33203 10.3594 1.47251 10.6095 1.72256C10.8595 1.9726 11 2.31174 11 2.66536V3.9987H13.6667C13.8435 3.9987 14.013 4.06894 14.1381 4.19396C14.2631 4.31898 14.3333 4.48855 14.3333 4.66536C14.3333 4.84218 14.2631 5.01174 14.1381 5.13677C14.013 5.26179 13.8435 5.33203 13.6667 5.33203H12.954L12.376 13.4267C12.3521 13.7631 12.2015 14.0779 11.9547 14.3077C11.708 14.5376 11.3832 14.6654 11.046 14.6654H4.28667C3.94943 14.6654 3.62471 14.5376 3.37792 14.3077C3.13114 14.0779 2.98061 13.7631 2.95667 13.4267L2.38 5.33203H1.66667C1.48986 5.33203 1.32029 5.26179 1.19526 5.13677C1.07024 5.01174 1 4.84218 1 4.66536C1 4.48855 1.07024 4.31898 1.19526 4.19396C1.32029 4.06894 1.48986 3.9987 1.66667 3.9987H4.33333V2.66536ZM5.66667 3.9987H9.66667V2.66536H5.66667V3.9987ZM3.716 5.33203L4.28733 13.332H11.0467L11.618 5.33203H3.716Z" fill="#3348FB"/>
</svg>
