<svg width="14" height="14" viewBox="0 0 14 14" fill="none" xmlns="http://www.w3.org/2000/svg">
<path d="M3.33333 1.66634C3.33333 1.31272 3.47381 0.973581 3.72386 0.723532C3.97391 0.473484 4.31305 0.333008 4.66667 0.333008H8.66667C9.02029 0.333008 9.35943 0.473484 9.60948 0.723532C9.85952 0.973581 10 1.31272 10 1.66634V2.99967H12.6667C12.8435 2.99967 13.013 3.06991 13.1381 3.19494C13.2631 3.31996 13.3333 3.48953 13.3333 3.66634C13.3333 3.84315 13.2631 4.01272 13.1381 4.13775C13.013 4.26277 12.8435 4.33301 12.6667 4.33301H11.954L11.376 12.4277C11.3521 12.7641 11.2015 13.0789 10.9547 13.3087C10.708 13.5386 10.3832 13.6663 10.046 13.6663H3.28667C2.94943 13.6663 2.62471 13.5386 2.37792 13.3087C2.13114 13.0789 1.98061 12.7641 1.95667 12.4277L1.38 4.33301H0.666667C0.489856 4.33301 0.320286 4.26277 0.195262 4.13775C0.0702379 4.01272 0 3.84315 0 3.66634C0 3.48953 0.0702379 3.31996 0.195262 3.19494C0.320286 3.06991 0.489856 2.99967 0.666667 2.99967H3.33333V1.66634ZM4.66667 2.99967H8.66667V1.66634H4.66667V2.99967ZM2.716 4.33301L3.28733 12.333H10.0467L10.618 4.33301H2.716Z" fill="#3348FB"/>
</svg>
