<svg width="13" height="14" viewBox="0 0 13 14" fill="none" xmlns="http://www.w3.org/2000/svg">
<path d="M7.7455 10.3485L4.94617 8.82181C4.5807 9.21252 4.10616 9.48427 3.58422 9.60174C3.06228 9.71921 2.51707 9.67697 2.01945 9.4805C1.52183 9.28404 1.09481 8.94245 0.79388 8.50011C0.492952 8.05777 0.332031 7.53514 0.332031 7.00014C0.332031 6.46515 0.492952 5.94252 0.79388 5.50018C1.09481 5.05784 1.52183 4.71625 2.01945 4.51979C2.51707 4.32333 3.06228 4.28109 3.58422 4.39855C4.10616 4.51602 4.5807 4.78777 4.94617 5.17848L7.74617 3.65181C7.58744 3.02245 7.6637 2.35681 7.96065 1.77966C8.2576 1.2025 8.75486 0.753469 9.35921 0.516724C9.96355 0.279979 10.6335 0.271779 11.2435 0.493662C11.8534 0.715545 12.3615 1.15228 12.6725 1.72199C12.9835 2.2917 13.076 2.95528 12.9327 3.58833C12.7895 4.22139 12.4202 4.78045 11.8942 5.16073C11.3682 5.541 10.7216 5.71638 10.0755 5.65399C9.42947 5.5916 8.82834 5.29572 8.38484 4.82181L5.58484 6.34848C5.6923 6.77605 5.6923 7.22357 5.58484 7.65115L8.38484 9.17781C8.82857 8.70414 9.42983 8.40856 10.0759 8.34648C10.722 8.28441 11.3685 8.46009 11.8943 8.84061C12.4201 9.22112 12.7891 9.78034 12.9321 10.4134C13.0751 11.0466 12.9823 11.7101 12.671 12.2796C12.3598 12.8492 11.8515 13.2857 11.2415 13.5073C10.6314 13.7289 9.96152 13.7205 9.35728 13.4835C8.75304 13.2465 8.25598 12.7973 7.95926 12.22C7.66254 11.6428 7.58654 10.9771 7.7455 10.3478V10.3485ZM2.99884 8.33315C3.35246 8.33315 3.6916 8.19267 3.94164 7.94262C4.19169 7.69257 4.33217 7.35343 4.33217 6.99981C4.33217 6.64619 4.19169 6.30705 3.94164 6.057C3.6916 5.80695 3.35246 5.66648 2.99884 5.66648C2.64521 5.66648 2.30607 5.80695 2.05603 6.057C1.80598 6.30705 1.6655 6.64619 1.6655 6.99981C1.6655 7.35343 1.80598 7.69257 2.05603 7.94262C2.30607 8.19267 2.64521 8.33315 2.99884 8.33315ZM10.3322 4.33315C10.6858 4.33315 11.0249 4.19267 11.275 3.94262C11.525 3.69257 11.6655 3.35343 11.6655 2.99981C11.6655 2.64619 11.525 2.30705 11.275 2.057C11.0249 1.80695 10.6858 1.66648 10.3322 1.66648C9.97855 1.66648 9.63941 1.80695 9.38936 2.057C9.13931 2.30705 8.99884 2.64619 8.99884 2.99981C8.99884 3.35343 9.13931 3.69257 9.38936 3.94262C9.63941 4.19267 9.97855 4.33315 10.3322 4.33315ZM10.3322 12.3331C10.6858 12.3331 11.0249 12.1927 11.275 11.9426C11.525 11.6926 11.6655 11.3534 11.6655 10.9998C11.6655 10.6462 11.525 10.3071 11.275 10.057C11.0249 9.80695 10.6858 9.66648 10.3322 9.66648C9.97855 9.66648 9.63941 9.80695 9.38936 10.057C9.13931 10.3071 8.99884 10.6462 8.99884 10.9998C8.99884 11.3534 9.13931 11.6926 9.38936 11.9426C9.63941 12.1927 9.97855 12.3331 10.3322 12.3331Z" fill="#3348FB"/>
</svg>
