<svg width="69" height="16" viewBox="0 0 69 16" fill="none" xmlns="http://www.w3.org/2000/svg">
<g clip-path="url(#clip0_3771_17825)">
<mask id="mask0_3771_17825" style="mask-type:luminance" maskUnits="userSpaceOnUse" x="0" y="0" width="69" height="16">
<path d="M68.7059 0H0V16H68.7059V0Z" fill="white"/>
</mask>
<g mask="url(#mask0_3771_17825)">
<path d="M7.82732 12.6056C7.82732 13.098 7.75167 13.5204 7.60036 13.8747C7.44906 14.2289 7.25416 14.5342 7.01568 14.7901C6.63992 15.1932 6.1835 15.4813 5.64691 15.6528C5.11033 15.8248 4.53968 15.9108 3.93445 15.9108C3.4114 15.9108 2.89585 15.8297 2.38682 15.6673C1.8778 15.505 1.42137 15.2271 1.01806 14.8336C0.724464 14.5482 0.481473 14.1961 0.289084 13.7785C0.0961945 13.3608 0 12.9007 0 12.3992H1.81617C1.81617 12.6556 1.86377 12.8937 1.96046 13.1146C2.05666 13.3361 2.1779 13.5258 2.3252 13.6828C2.53563 13.9102 2.79014 14.059 3.08824 14.1338C3.38635 14.2074 3.67743 14.244 3.96201 14.244C4.30119 14.244 4.62234 14.2026 4.92496 14.1187C5.22757 14.0354 5.47056 13.8903 5.65393 13.6828C5.76415 13.5559 5.85534 13.4205 5.92898 13.2769C6.00263 13.1345 6.03871 12.9356 6.03871 12.6798C6.03871 12.2965 5.92247 12.0084 5.6885 11.8165C5.45453 11.6251 5.18648 11.4993 4.88337 11.4402C4.5532 11.3714 4.19097 11.322 3.79667 11.2929C3.40238 11.2639 3.04465 11.2182 2.72401 11.1591C2.38432 11.1 2.06568 10.9968 1.76807 10.8495C1.46997 10.7017 1.20844 10.5076 0.983488 10.2663C0.759034 10.0255 0.580173 9.73519 0.447404 9.39547C0.314135 9.05629 0.2475 8.67035 0.2475 8.2371C0.2475 7.82375 0.325658 7.44533 0.481473 7.10077C0.637288 6.75622 0.843705 6.4466 1.10073 6.17085C1.42137 5.8263 1.83421 5.55592 2.33873 5.35919C2.84325 5.16245 3.38434 5.06409 3.96201 5.06409C4.48457 5.06409 4.98658 5.15009 5.46805 5.3221C5.94953 5.49465 6.35585 5.74782 6.68551 6.08216C6.97911 6.37726 7.21508 6.71214 7.39395 7.08572C7.57281 7.45984 7.6665 7.86782 7.67602 8.31074H5.86035C5.85083 8.12422 5.80724 7.93931 5.72958 7.75763C5.65142 7.57541 5.55272 7.41576 5.43398 7.27762C5.27767 7.10077 5.05772 6.96317 4.77365 6.86426C4.48907 6.76643 4.21402 6.71698 3.94798 6.71698C3.67292 6.71698 3.39085 6.75622 3.10227 6.8347C2.81319 6.91371 2.56769 7.06637 2.36628 7.29267C2.26508 7.41039 2.18492 7.53832 2.1253 7.67646C2.06568 7.81407 2.03612 7.98124 2.03612 8.17798C2.03612 8.52253 2.1278 8.78538 2.31117 8.9676C2.49454 9.14982 2.73302 9.26539 3.02662 9.31431C3.33825 9.3643 3.68896 9.40837 4.07874 9.44708C4.46853 9.48685 4.82375 9.53093 5.1449 9.57984C5.51164 9.63897 5.85784 9.7454 6.1835 9.89752C6.50916 10.0502 6.79323 10.2518 7.03672 10.5022C7.27921 10.7538 7.4721 11.0559 7.61439 11.4101C7.75568 11.7643 7.82732 12.1627 7.82732 12.6056Z" fill="#808080"/>
</g>
<mask id="mask1_3771_17825" style="mask-type:luminance" maskUnits="userSpaceOnUse" x="0" y="0" width="69" height="16">
<path d="M68.7059 0H0V16H68.7059V0Z" fill="white"/>
</mask>
<g mask="url(#mask1_3771_17825)">
<path d="M15.5058 15.7348L14.8184 14.908C14.4236 15.2822 13.9903 15.5574 13.5183 15.7348C13.0459 15.9116 12.5574 16.0003 12.0528 16.0003C11.622 16.0003 11.2091 15.9267 10.8148 15.7788C10.4205 15.6321 10.0769 15.4225 9.78326 15.1515C9.49017 14.8812 9.25619 14.549 9.08184 14.1555C8.90749 13.762 8.82031 13.3186 8.82031 12.8267C8.82031 12.1774 8.97863 11.6221 9.29527 11.1588C9.61141 10.6965 10.0313 10.2934 10.5538 9.94883C10.3975 9.77145 10.2557 9.59729 10.1275 9.4242C9.99869 9.25273 9.88897 9.0775 9.79729 8.90012C9.7051 8.72327 9.63446 8.53621 9.58386 8.33948C9.53375 8.14274 9.5082 7.92128 9.5082 7.67563C9.5082 7.26227 9.57935 6.89299 9.72163 6.56833C9.86342 6.24366 10.0538 5.96576 10.2923 5.73463C10.5308 5.50349 10.8128 5.32879 11.1385 5.21054C11.4637 5.09282 11.8099 5.03369 12.1771 5.03369C12.5348 5.03369 12.876 5.09013 13.2017 5.20355C13.5273 5.31643 13.8139 5.4836 14.0619 5.70506C14.3094 5.92652 14.5063 6.19744 14.6531 6.51673C14.7999 6.83655 14.8735 7.20315 14.8735 7.6165C14.8735 7.96106 14.8275 8.26799 14.7353 8.5389C14.6441 8.80927 14.5153 9.05546 14.3505 9.27692C14.1857 9.49785 13.9903 9.70211 13.7658 9.88916C13.5409 10.0768 13.2959 10.2531 13.0298 10.4202L14.7217 12.3983C14.8044 12.2312 14.8615 12.0366 14.8936 11.8151C14.9257 11.5937 14.9507 11.3604 14.9692 11.1142C14.9878 10.8782 14.9973 10.6471 14.9973 10.4202V9.83165H17.5144V11.2926H16.3866C16.3676 11.706 16.3175 12.114 16.2353 12.5171C16.1526 12.9213 16.0058 13.2944 15.7949 13.6395L17.5966 15.7348H15.5058ZM11.5578 11.1002C11.393 11.2088 11.2417 11.3125 11.1039 11.4104C10.9667 11.5087 10.8444 11.6227 10.7392 11.7501C10.634 11.878 10.5513 12.0226 10.4917 12.1855C10.4321 12.3483 10.4025 12.537 10.4025 12.7542C10.4025 13.0197 10.4506 13.2557 10.5468 13.4626C10.6435 13.669 10.7718 13.8411 10.9321 13.9792C11.0924 14.1168 11.2778 14.2195 11.4892 14.2888C11.7001 14.3576 11.9201 14.3915 12.1495 14.3915C12.4426 14.3915 12.7362 14.3474 13.0298 14.2587C13.3234 14.17 13.5754 13.9986 13.7863 13.7422L11.5578 11.1002ZM13.2638 7.69122C13.2638 7.32731 13.1606 7.04673 12.9542 6.84999C12.7483 6.65326 12.4887 6.55489 12.1771 6.55489C11.893 6.55489 11.6405 6.64573 11.4206 6.82795C11.2006 7.01017 11.0904 7.28324 11.0904 7.64714C11.0904 7.81431 11.12 7.97181 11.1796 8.11909C11.2392 8.26691 11.3123 8.4072 11.4 8.53997C11.4867 8.67274 11.5854 8.79745 11.6956 8.91624C11.8053 9.03396 11.9111 9.14738 12.0123 9.25542C12.1586 9.16727 12.3074 9.07589 12.4592 8.98236C12.61 8.88937 12.7452 8.78347 12.8645 8.66468C12.9837 8.54642 13.0799 8.40882 13.1536 8.25132C13.2272 8.0949 13.2638 7.90784 13.2638 7.69122Z" fill="#808080"/>
</g>
<mask id="mask2_3771_17825" style="mask-type:luminance" maskUnits="userSpaceOnUse" x="0" y="0" width="69" height="16">
<path d="M68.7059 0H0V16H68.7059V0Z" fill="white"/>
</mask>
<g mask="url(#mask2_3771_17825)">
<path d="M26.1577 8.60572C26.1577 9.10777 26.0846 9.56467 25.9378 9.97856C25.791 10.3919 25.573 10.7462 25.2839 11.0413C24.9954 11.3364 24.6356 11.5659 24.2043 11.7277C23.7734 11.89 23.2779 11.9712 22.7188 11.9712H20.6556V15.7199H18.8945V5.25586H22.7188C23.2779 5.25586 23.7734 5.33703 24.2043 5.49936C24.6356 5.66169 24.9954 5.88799 25.2839 6.17825C25.573 6.46852 25.791 6.82006 25.9378 7.23342C26.0846 7.64678 26.1577 8.10421 26.1577 8.60572ZM24.3701 8.62077C24.3701 8.11872 24.2323 7.71074 23.9573 7.39575C23.6822 7.0813 23.2463 6.9238 22.6506 6.9238H20.6561V10.3032H22.6506C23.2463 10.3032 23.6822 10.1484 23.9573 9.83827C24.2318 9.52865 24.3701 9.12282 24.3701 8.62077Z" fill="#808080"/>
</g>
<mask id="mask3_3771_17825" style="mask-type:luminance" maskUnits="userSpaceOnUse" x="0" y="0" width="69" height="16">
<path d="M68.7059 0H0V16H68.7059V0Z" fill="white"/>
</mask>
<g mask="url(#mask3_3771_17825)">
<path d="M36.6114 15.7199L36.4049 14.568C36.3318 14.7158 36.2216 14.8706 36.0753 15.033C35.928 15.1953 35.7476 15.341 35.5317 15.4689C35.3157 15.5968 35.0752 15.7027 34.8097 15.7866C34.5442 15.8694 34.2591 15.9113 33.957 15.9113C33.3883 15.9113 32.8583 15.828 32.3683 15.6603C31.8773 15.4931 31.4394 15.1883 31.0546 14.7454C30.7976 14.4605 30.5887 14.16 30.4289 13.845C30.268 13.53 30.1398 13.1957 30.0436 12.8415C29.9469 12.4872 29.8807 12.1158 29.8437 11.7277C29.8071 11.3386 29.7891 10.9284 29.7891 10.4946C29.7891 10.0727 29.8046 9.66685 29.8372 9.27714C29.8692 8.88851 29.9313 8.52246 30.0225 8.1779C30.1142 7.83335 30.243 7.50384 30.4078 7.18885C30.5731 6.8744 30.7881 6.57392 31.0546 6.2885C31.4304 5.88535 31.8773 5.58004 32.3953 5.37363C32.9134 5.16668 33.4344 5.06348 33.957 5.06348C34.5622 5.06348 35.1123 5.17206 35.6078 5.38814C36.1028 5.60477 36.5157 5.89503 36.8458 6.25893C37.0848 6.52501 37.2857 6.8271 37.451 7.16682C37.6159 7.50599 37.7126 7.90753 37.7396 8.3698H35.924C35.9054 8.16285 35.8553 7.98601 35.7727 7.83819C35.69 7.6909 35.5988 7.54846 35.4976 7.41032C35.1579 6.98728 34.6399 6.7755 33.9425 6.7755C33.6584 6.7755 33.3693 6.83731 33.0762 6.96041C32.7826 7.0835 32.5396 7.25766 32.3472 7.48396C32.1819 7.67102 32.0491 7.88764 31.9479 8.13329C31.8472 8.37947 31.7691 8.63802 31.7145 8.9084C31.6593 9.17931 31.6248 9.45184 31.6112 9.72705C31.5972 10.0028 31.5907 10.2581 31.5907 10.4941C31.5907 10.7306 31.5992 10.9892 31.6178 11.2692C31.6363 11.5498 31.6729 11.8277 31.728 12.1029C31.7831 12.3792 31.8608 12.6415 31.962 12.8931C32.0627 13.1441 32.1954 13.3629 32.3608 13.5499C32.5532 13.7762 32.7941 13.9429 33.0832 14.0514C33.3718 14.16 33.6584 14.2143 33.9425 14.2143C34.2641 14.2143 34.5457 14.16 34.7887 14.0514C35.0312 13.9434 35.2356 13.7961 35.4009 13.6096C35.6669 13.314 35.8388 13.0017 35.9169 12.6722C35.9946 12.3427 36.0332 11.9761 36.0332 11.5729H33.7085V9.99366H37.7527V15.7199H36.6114Z" fill="#808080"/>
</g>
<mask id="mask4_3771_17825" style="mask-type:luminance" maskUnits="userSpaceOnUse" x="0" y="0" width="69" height="16">
<path d="M68.7059 0H0V16H68.7059V0Z" fill="white"/>
</mask>
<g mask="url(#mask4_3771_17825)">
<path d="M42.0576 15.7047C41.8828 15.7434 41.7565 15.7714 41.6794 15.7854C41.6017 15.8004 41.4755 15.8074 41.3011 15.8074C40.7139 15.8074 40.242 15.6451 39.8842 15.3204C39.5265 14.9957 39.3477 14.4695 39.3477 13.7412V5.04883H41.0812V13.4321C41.0812 13.6584 41.1222 13.8379 41.2049 13.9707C41.2876 14.1035 41.4755 14.1701 41.7691 14.1701C41.8422 14.1701 41.8973 14.1674 41.9339 14.1626C41.9705 14.1577 42.0115 14.1545 42.0576 14.1545V15.7047Z" fill="#808080"/>
</g>
<mask id="mask5_3771_17825" style="mask-type:luminance" maskUnits="userSpaceOnUse" x="0" y="0" width="69" height="16">
<path d="M68.7059 0H0V16H68.7059V0Z" fill="white"/>
</mask>
<g mask="url(#mask5_3771_17825)">
<path d="M49.3569 11.8828C49.3569 12.5321 49.2832 13.0761 49.1369 13.5137C48.9901 13.9512 48.7837 14.3527 48.5177 14.7161C48.2707 15.0408 47.9285 15.3208 47.4931 15.5573C47.0572 15.7928 46.5642 15.9116 46.0141 15.9116C45.464 15.9116 44.971 15.7928 44.5361 15.5573C44.1003 15.3208 43.7581 15.0408 43.5111 14.7161C43.245 14.3522 43.0386 13.9512 42.8918 13.5137C42.7455 13.0761 42.6719 12.5321 42.6719 11.8828C42.6719 11.2335 42.7455 10.6895 42.8918 10.252C43.0386 9.81441 43.245 9.41288 43.5111 9.04897C43.7581 8.72431 44.1003 8.44426 44.5361 8.20775C44.971 7.97177 45.464 7.85352 46.0141 7.85352C46.5642 7.85352 47.0572 7.97177 47.4931 8.20775C47.9285 8.44426 48.2707 8.72431 48.5177 9.04897C48.7837 9.41342 48.9901 9.81441 49.1369 10.252C49.2827 10.6895 49.3569 11.2335 49.3569 11.8828ZM47.6094 11.8828C47.6094 11.5189 47.5773 11.1668 47.5132 10.8276C47.4485 10.4874 47.3118 10.195 47.1008 9.94879C46.9816 9.81119 46.8303 9.69562 46.6469 9.60209C46.4635 9.50856 46.2526 9.46179 46.0136 9.46179C45.7751 9.46179 45.5647 9.50856 45.3808 9.60209C45.197 9.69562 45.0457 9.81119 44.9269 9.94879C44.716 10.195 44.5787 10.4874 44.5146 10.8276C44.4505 11.1668 44.4184 11.5189 44.4184 11.8828C44.4184 12.2467 44.4505 12.5988 44.5146 12.938C44.5787 13.2777 44.716 13.5706 44.9269 13.8163C45.0457 13.9539 45.1975 14.0695 45.3808 14.1635C45.5642 14.2571 45.7751 14.3038 46.0136 14.3038C46.2526 14.3038 46.463 14.2571 46.6469 14.1635C46.8303 14.0695 46.9816 13.9539 47.1008 13.8163C47.3118 13.5706 47.4485 13.2777 47.5132 12.938C47.5773 12.5988 47.6094 12.2467 47.6094 11.8828Z" fill="#808080"/>
</g>
<mask id="mask6_3771_17825" style="mask-type:luminance" maskUnits="userSpaceOnUse" x="0" y="0" width="69" height="16">
<path d="M68.7059 0H0V16H68.7059V0Z" fill="white"/>
</mask>
<g mask="url(#mask6_3771_17825)">
<path d="M57.2922 11.897C57.2922 12.6249 57.1864 13.272 56.975 13.8375C56.7641 14.4035 56.4434 14.8733 56.0121 15.2474C55.7926 15.4436 55.5381 15.6011 55.2495 15.7194C54.9604 15.8376 54.6368 15.8962 54.2791 15.8962C53.8848 15.8962 53.504 15.8156 53.1378 15.6533C52.771 15.4904 52.4814 15.2324 52.271 14.8782L52.1608 15.7194H50.6758V5.06348H52.3948V8.60577C52.5601 8.38969 52.8056 8.21015 53.1307 8.06717C53.4564 7.92473 53.8347 7.85324 54.266 7.85324C54.6323 7.85324 54.9609 7.90753 55.25 8.01557C55.5386 8.12361 55.7931 8.27627 56.0126 8.473C56.8653 9.23092 57.2922 10.3721 57.2922 11.897ZM55.5446 11.868C55.5446 11.5337 55.5141 11.2036 55.4549 10.8784C55.3953 10.5538 55.2741 10.264 55.0902 10.0087C54.9614 9.84047 54.8031 9.69856 54.6157 9.57977C54.4274 9.46205 54.2009 9.40346 53.9349 9.40346C53.5957 9.40346 53.3201 9.47979 53.1097 9.63191C52.8988 9.78457 52.7334 9.98076 52.6152 10.2227C52.496 10.4635 52.4153 10.7295 52.3742 11.0193C52.3331 11.3095 52.3126 11.5923 52.3126 11.868C52.3126 12.2416 52.3537 12.6227 52.4363 13.0119C52.5185 13.4005 52.6838 13.7176 52.9313 13.9638C53.0501 14.0821 53.1924 14.1762 53.3582 14.2444C53.523 14.3132 53.7154 14.3471 53.9354 14.3471C54.2014 14.3471 54.4279 14.2885 54.6162 14.1697C54.8036 14.052 54.9619 13.9095 55.0907 13.7418C55.2741 13.486 55.3953 13.1936 55.4554 12.8635C55.5146 12.534 55.5446 12.2029 55.5446 11.868Z" fill="#808080"/>
</g>
<mask id="mask7_3771_17825" style="mask-type:luminance" maskUnits="userSpaceOnUse" x="0" y="0" width="69" height="16">
<path d="M68.7059 0H0V16H68.7059V0Z" fill="white"/>
</mask>
<g mask="url(#mask7_3771_17825)">
<path d="M64.9273 15.631C64.7805 15.7004 64.6542 15.752 64.549 15.7858C64.4438 15.8202 64.286 15.838 64.075 15.838C63.6988 15.838 63.4102 15.7294 63.2083 15.5133C63.0064 15.2978 62.8921 15.0462 62.8646 14.7613C62.6993 15.0763 62.4242 15.3467 62.0389 15.573C61.6536 15.7993 61.2047 15.9122 60.6917 15.9122C60.2603 15.9122 59.8841 15.846 59.5629 15.7133C59.2418 15.5805 58.9737 15.4031 58.7583 15.1817C58.5434 14.9602 58.38 14.7049 58.2703 14.4146C58.1601 14.1243 58.1055 13.8217 58.1055 13.5073C58.1055 13.1428 58.1671 12.8187 58.2908 12.5327C58.4141 12.2473 58.5869 12.0011 58.8064 11.7947C59.0263 11.5883 59.2834 11.4281 59.5769 11.3152C59.87 11.2018 60.1862 11.1298 60.5264 11.1008L62.6306 10.9384V10.4654C62.6306 10.1015 62.5505 9.80801 62.3901 9.58709C62.2298 9.36563 61.9067 9.2549 61.4197 9.2549C61.0164 9.2549 60.7027 9.34896 60.4778 9.53495C60.2533 9.72254 60.1321 9.99292 60.113 10.3471H58.4487C58.4762 9.9139 58.5699 9.53978 58.7307 9.22533C58.8906 8.91034 59.1045 8.65233 59.3695 8.45076C59.6356 8.24918 59.9432 8.09921 60.2914 8.00085C60.6401 7.90248 61.0159 7.85303 61.4192 7.85303C62.0344 7.85303 62.582 7.9686 63.0635 8.19973C63.5445 8.43141 63.8912 8.83724 64.1016 9.41723C64.1933 9.66342 64.2509 9.91928 64.2739 10.1848C64.2965 10.4504 64.3085 10.7116 64.3085 10.9669V13.8158C64.3085 13.9927 64.3381 14.1184 64.3977 14.1921C64.4573 14.2657 64.5605 14.3028 64.7073 14.3028C64.7805 14.3028 64.8311 14.298 64.8586 14.2878C64.8867 14.2878 64.9092 14.2829 64.9273 14.2738V15.631ZM62.6301 12.3102L60.8144 12.4575C60.5489 12.4774 60.3099 12.5709 60.099 12.7375C59.8876 12.9058 59.7824 13.1466 59.7824 13.4616C59.7824 13.7567 59.8856 13.99 60.092 14.1625C60.2984 14.3351 60.5344 14.42 60.8004 14.42C61.3415 14.42 61.7819 14.2706 62.1211 13.9701C62.4603 13.6701 62.6301 13.2347 62.6301 12.6639V12.3102Z" fill="#808080"/>
</g>
<mask id="mask8_3771_17825" style="mask-type:luminance" maskUnits="userSpaceOnUse" x="0" y="0" width="69" height="16">
<path d="M68.7059 0H0V16H68.7059V0Z" fill="white"/>
</mask>
<g mask="url(#mask8_3771_17825)">
<path d="M68.7061 15.7051C68.5317 15.7438 68.4055 15.7718 68.3278 15.7857C68.2496 15.8008 68.1234 15.8078 67.9495 15.8078C67.3623 15.8078 66.8904 15.6454 66.5327 15.3208C66.175 14.9961 65.9961 14.4699 65.9961 13.7415V5.04919H67.7291V13.4324C67.7291 13.6587 67.7707 13.8383 67.8533 13.9711C67.936 14.1038 68.1234 14.1705 68.417 14.1705C68.4906 14.1705 68.5452 14.1678 68.5823 14.1629C68.6189 14.1581 68.66 14.1549 68.7061 14.1549V15.7051Z" fill="#808080"/>
</g>
<mask id="mask9_3771_17825" style="mask-type:luminance" maskUnits="userSpaceOnUse" x="0" y="0" width="69" height="16">
<path d="M68.7059 0H0V16H68.7059V0Z" fill="white"/>
</mask>
<g mask="url(#mask9_3771_17825)">
<path d="M68.7059 0H0V1.69858H68.7059V0Z" fill="#808080"/>
</g>
</g>
<defs>
<clipPath id="clip0_3771_17825">
<rect width="68.7059" height="16" fill="white"/>
</clipPath>
</defs>
</svg>
