<svg width="14" height="14" viewBox="0 0 14 14" fill="none" xmlns="http://www.w3.org/2000/svg">
<path d="M3.60408 1.66683C3.60408 1.31321 3.74263 0.974069 3.98925 0.72402C4.23588 0.473972 4.57037 0.333496 4.91915 0.333496H8.86435C9.21313 0.333496 9.54762 0.473972 9.79425 0.72402C10.0409 0.974069 10.1794 1.31321 10.1794 1.66683V3.00016H12.8096C12.9839 3.00016 13.1512 3.0704 13.2745 3.19543C13.3978 3.32045 13.4671 3.49002 13.4671 3.66683C13.4671 3.84364 13.3978 4.01321 13.2745 4.13823C13.1512 4.26326 12.9839 4.3335 12.8096 4.3335H12.1067L11.5366 12.4282C11.513 12.7646 11.3645 13.0794 11.1211 13.3092C10.8777 13.5391 10.5574 13.6668 10.2248 13.6668H3.55805C3.22543 13.6668 2.90516 13.5391 2.66176 13.3092C2.41835 13.0794 2.26989 12.7646 2.24627 12.4282L1.6775 4.3335H0.973941C0.799552 4.3335 0.632305 4.26326 0.508994 4.13823C0.385682 4.01321 0.316406 3.84364 0.316406 3.66683C0.316406 3.49002 0.385682 3.32045 0.508994 3.19543C0.632305 3.0704 0.799552 3.00016 0.973941 3.00016H3.60408V1.66683ZM4.91915 3.00016H8.86435V1.66683H4.91915V3.00016ZM2.9952 4.3335L3.55871 12.3335H10.2254L10.789 4.3335H2.9952Z" fill="#3348FB"/>
</svg>
