<svg width="22" height="18" viewBox="0 0 22 18" fill="none" xmlns="http://www.w3.org/2000/svg">
<path d="M21.2121 2.65605C20.449 2.99365 19.6397 3.21542 18.8111 3.31405C19.6842 2.79119 20.3374 1.96879 20.6491 1.00005C19.8291 1.48805 18.9301 1.83005 17.9941 2.01505C17.3647 1.34163 16.5305 0.895012 15.6211 0.744633C14.7117 0.594255 13.7781 0.74854 12.9654 1.1835C12.1527 1.61846 11.5065 2.30973 11.1272 3.14984C10.748 3.98995 10.6569 4.93183 10.8681 5.82905C9.20506 5.74584 7.57809 5.31378 6.09287 4.56091C4.60764 3.80805 3.29736 2.75122 2.24713 1.45905C1.87542 2.0975 1.68008 2.82328 1.68113 3.56205C1.68113 5.01205 2.42012 6.29305 3.54112 7.04305C2.87714 7.02211 2.22777 6.84279 1.64713 6.52005V6.57105C1.64709 7.53692 1.98116 8.47307 2.59266 9.22072C3.20415 9.96837 4.05544 10.4815 5.00212 10.673C4.38577 10.8403 3.73942 10.8649 3.11212 10.745C3.37905 11.5764 3.89934 12.3035 4.60012 12.8244C5.30091 13.3454 6.14708 13.6341 7.02013 13.65C6.15248 14.3315 5.15901 14.8352 4.09653 15.1324C3.03406 15.4296 1.92341 15.5144 0.828125 15.382C2.73985 16.6114 4.96523 17.2641 7.23812 17.262C14.9321 17.262 19.1381 10.889 19.1381 5.36205C19.1381 5.18205 19.1341 5.00005 19.1261 4.82105C19.9445 4.22941 20.6509 3.49561 21.2121 2.65605Z" fill="#131313"/>
</svg>
