<svg width="110" height="16" viewBox="0 0 110 16" fill="none" xmlns="http://www.w3.org/2000/svg">
<path d="M11.2397 0.286501V2.71074H6.89807V15.7135H4.36364V2.71074H0V0.286501H11.2397Z" fill="white"/>
<path d="M25.124 13.686C23.5813 15.2287 21.6933 16 19.4601 16C17.2268 16 15.3315 15.2287 13.7741 13.686C12.2314 12.1286 11.4601 10.2332 11.4601 8C11.4601 5.76676 12.2314 3.87879 13.7741 2.33609C15.3315 0.778696 17.2268 0 19.4601 0C21.6933 0 23.5813 0.778696 25.124 2.33609C26.6814 3.87879 27.46 5.76676 27.46 8C27.46 10.2332 26.6814 12.1286 25.124 13.686ZM15.5592 11.9669C16.6171 13.0101 17.9174 13.5317 19.4601 13.5317C21.0028 13.5317 22.2957 13.0101 23.3388 11.9669C24.3967 10.9091 24.9256 9.58678 24.9256 8C24.9256 6.41322 24.3967 5.09826 23.3388 4.0551C22.2957 2.99725 21.0028 2.46832 19.4601 2.46832C17.9174 2.46832 16.6171 2.99725 15.5592 4.0551C14.5161 5.09826 13.9945 6.41322 13.9945 8C13.9945 9.58678 14.5161 10.9091 15.5592 11.9669Z" fill="white"/>
<path d="M35.4578 0.286501C36.9124 0.286501 38.1245 0.77135 39.0942 1.74105C40.0786 2.71074 40.5708 3.91552 40.5708 5.35537C40.5708 6.78053 40.0786 7.98531 39.0942 8.9697C38.1245 9.93939 36.9124 10.4242 35.4578 10.4242H32.3063V15.7135H29.7719V0.286501H35.4578ZM35.4578 8.04408C36.2071 8.04408 36.8242 7.79431 37.3091 7.29477C37.7939 6.78053 38.0363 6.13407 38.0363 5.35537C38.0363 4.57668 37.7939 3.93756 37.3091 3.43802C36.8242 2.92378 36.2071 2.66667 35.4578 2.66667H32.3063V8.04408H35.4578Z" fill="white"/>
<path d="M51.807 2.71074H45.3056V7.0303H51.5866V9.45455H45.3056V15.7135H42.7712V0.286501H51.807V2.71074Z" fill="white"/>
<path d="M78.6099 0.286501H81.1444V15.7135H79.1609L71.8882 5.24518V15.7135H69.3538V0.286501H71.3372L78.6099 10.7548V0.286501Z" fill="white"/>
<path d="M89.5614 0.286501C91.6772 0.286501 93.4329 1.02847 94.8287 2.5124C96.2391 3.99633 96.9444 5.82553 96.9444 8C96.9444 10.1598 96.2391 11.989 94.8287 13.4876C93.4329 14.9715 91.6772 15.7135 89.5614 15.7135H83.5008V0.286501H89.5614ZM89.5614 13.2893C91.016 13.2893 92.1987 12.7897 93.1097 11.7906C94.0353 10.7916 94.4981 9.52801 94.4981 8C94.4981 6.4573 94.0353 5.19376 93.1097 4.20937C92.1987 3.21028 91.016 2.71074 89.5614 2.71074H86.0353V13.2893H89.5614Z" fill="white"/>
<path d="M103.809 16C102.325 16 101.061 15.6621 100.018 14.9862C98.9898 14.3104 98.2698 13.3848 97.8585 12.2094L100.04 10.9311C100.657 12.6648 101.936 13.5317 103.875 13.5317C104.83 13.5317 105.543 13.348 106.013 12.9807C106.498 12.5987 106.74 12.1065 106.74 11.5041C106.74 10.8724 106.483 10.3949 105.969 10.0716C105.454 9.7337 104.543 9.36639 103.236 8.9697C102.501 8.74931 101.906 8.54362 101.451 8.35262C100.995 8.16162 100.51 7.89715 99.9962 7.55923C99.4967 7.20661 99.122 6.77319 98.8722 6.25895C98.6224 5.74472 98.4976 5.14233 98.4976 4.45179C98.4976 3.0854 98.9824 2.00551 99.9521 1.21212C100.922 0.40404 102.09 0 103.456 0C104.69 0 105.77 0.301194 106.696 0.903581C107.622 1.50597 108.334 2.33609 108.834 3.39394L106.696 4.6281C106.049 3.18825 104.97 2.46832 103.456 2.46832C102.722 2.46832 102.134 2.64463 101.693 2.99725C101.252 3.33517 101.032 3.79798 101.032 4.38568C101.032 4.95868 101.252 5.41414 101.693 5.75207C102.149 6.0753 102.964 6.42057 104.139 6.78788C104.727 6.97888 105.153 7.1258 105.418 7.22865C105.697 7.31681 106.079 7.46373 106.564 7.66942C107.063 7.87512 107.438 8.08081 107.688 8.2865C107.937 8.4922 108.202 8.74931 108.481 9.05785C108.775 9.36639 108.981 9.71901 109.098 10.1157C109.216 10.5124 109.274 10.9605 109.274 11.4601C109.274 12.8558 108.768 13.9651 107.754 14.7879C106.755 15.596 105.44 16 103.809 16Z" fill="white"/>
<path fill-rule="evenodd" clip-rule="evenodd" d="M64.6395 0.289551H67.1033V2.7533H64.6395V15.7967H64.6384V15.7975H59.7109V13.3337H62.1758V2.7533V0.289551H64.6395Z" fill="white"/>
<path fill-rule="evenodd" clip-rule="evenodd" d="M59.7773 13.3325C59.7723 13.3325 59.7672 13.3325 59.7621 13.3325C58.6602 13.3325 57.83 13.0351 57.2717 12.4741C56.7281 11.913 56.4563 11.16 56.4563 10.215V0.290527H53.9219V10.37C53.9219 12.0237 54.4655 13.3452 55.5527 14.3345C56.64 15.309 58.0431 15.7962 59.7621 15.7962C59.7672 15.7962 59.7723 15.7962 59.7773 15.7962V13.3325Z" fill="white"/>
</svg>
